<svg xmlns="http://www.w3.org/2000/svg" class="geometry" viewBox="0 0 2048 1536" fill="none" stroke-linecap="round" stroke-linejoin="round" font-family="JetBrains Mono, ui-monospace, monospace" role="img" aria-label="CANNONDALE SCALPEL · SIZE L · 120/120 MM · LUCA MARTIN'S 2026 WORLDS BIKE: geometry dimensions drawn over a side-on photograph of the race bike">
<defs><clipPath id="geo-clip"><rect class="geo-clip-rect" x="0" y="0" width="2048" height="1536"/></clipPath></defs>
<g class="geo" clip-path="url(#geo-clip)">
<line class="guide" x1="290.0" y1="1347.1" x2="1807.0" y2="1347.1"/>
<line class="axis" x1="1286.5" y1="251.1" x2="1760.8" y2="1347.1"/>
<line class="skel" x1="1347.6" y1="392.1" x2="1388.3" y2="486.2"/>
<line class="skel" x1="1388.3" y1="486.2" x2="860.8" y2="1011.0"/>
<line class="skel" x1="860.8" y1="1011.0" x2="410.0" y2="968.0"/>
<line class="skel" x1="860.8" y1="1011.0" x2="687.7" y2="341.4"/>
<line class="skel" x1="687.7" y1="341.4" x2="1347.6" y2="392.1"/>
<line class="dimline key" x1="410.0" y1="1409.1" x2="1647.0" y2="1409.1"/><line class="dimline key" x1="410.0" y1="1395.1" x2="410.0" y2="1423.1"/><line class="dimline key" x1="1647.0" y1="1395.1" x2="1647.0" y2="1423.1"/><line class="guide" x1="410.0" y1="1347.1" x2="410.0" y2="1431.1"/><line class="guide" x1="1647.0" y1="1347.1" x2="1647.0" y2="1431.1"/><text class="dim key" x="1028.5" y="1455.1" text-anchor="middle" data-v="1207" data-prefix="WHEELBASE">WHEELBASE 1207</text>
<line class="dimline key" x1="860.8" y1="272.1" x2="1347.6" y2="272.1"/><line class="dimline key" x1="860.8" y1="258.1" x2="860.8" y2="286.1"/><line class="dimline key" x1="1347.6" y1="258.1" x2="1347.6" y2="286.1"/><line class="guide" x1="860.8" y1="1011.0" x2="860.8" y2="250.1"/><line class="guide" x1="1347.6" y1="1011.0" x2="1347.6" y2="250.1"/><text class="dim key" x="1104.2" y="306.1" text-anchor="middle" data-v="475" data-prefix="REACH">REACH 475</text>
<line class="dimline" x1="1497.6" y1="1011.0" x2="1497.6" y2="392.1"/><line class="dimline" x1="1483.6" y1="1011.0" x2="1511.6" y2="1011.0"/><line class="dimline" x1="1483.6" y1="392.1" x2="1511.6" y2="392.1"/><line class="guide" x1="1347.6" y1="1011.0" x2="1519.6" y2="1011.0"/><line class="guide" x1="1347.6" y1="392.1" x2="1519.6" y2="392.1"/><text class="dim" x="1531.6" y="713.6" text-anchor="start" data-v="604" data-prefix="STACK">STACK 604</text>
<line class="dimline" x1="403.3" y1="1037.7" x2="854.2" y2="1080.7"/><line class="dimline" x1="404.7" y1="1023.7" x2="402.0" y2="1051.6"/><line class="dimline" x1="855.5" y1="1066.8" x2="852.9" y2="1094.7"/><line class="guide" x1="410.0" y1="968.0" x2="401.3" y2="1059.6"/><line class="guide" x1="860.8" y1="1011.0" x2="852.1" y2="1102.6"/><text class="dim" x="625.5" y="1105.0" text-anchor="middle" data-v="442" data-prefix="CHAINSTAY">CHAINSTAY 442</text>
<line class="dimline" x1="240.0" y1="968.0" x2="240.0" y2="1011.0"/><line class="dimline" x1="254.0" y1="968.0" x2="226.0" y2="968.0"/><line class="dimline" x1="254.0" y1="1011.0" x2="226.0" y2="1011.0"/><line class="guide" x1="410.0" y1="968.0" x2="218.0" y2="968.0"/><line class="guide" x1="410.0" y1="1011.0" x2="218.0" y2="1011.0"/><text class="dim" x="274.0" y="1001.5" text-anchor="end" data-v="42" data-prefix="BB DROP">BB DROP 42</text>
<line class="dimline" x1="1760.8" y1="1335.1" x2="1760.8" y2="1359.1"/>
<line class="dimline" x1="1647.0" y1="1335.1" x2="1647.0" y2="1359.1"/>
<line class="dimline" x1="1760.8" y1="1347.1" x2="1647.0" y2="1347.1"/>
<text class="dim" x="1687.0" y="1421.1" text-anchor="start" data-v="111" data-prefix="TRAIL">TRAIL 111</text>
<path class="dimline key" d="M 1640.8 1347.1 A 120 120 0 0 1 1713.2 1237.0"/>
<text class="dim key ha" x="1407.6" y="242.1" text-anchor="start" data-v="66.6" data-prefix="HEAD ANGLE">HEAD ANGLE 66.6°</text>
<text class="sub" x="1407.6" y="282.1" text-anchor="start">OFFSET 45 MM · SEAT ANGLE 75.5°</text>
<circle class="ring" cx="410.0" cy="968.0" r="18"/>
<circle class="dot" cx="410.0" cy="968.0" r="6"/>
<circle class="ring" cx="1647.0" cy="968.0" r="18"/>
<circle class="dot" cx="1647.0" cy="968.0" r="6"/>
<circle class="ring" cx="860.8" cy="1011.0" r="18"/>
<circle class="dot" cx="860.8" cy="1011.0" r="6"/>
<circle class="ring" cx="1347.6" cy="392.1" r="18"/>
<circle class="dot" cx="1347.6" cy="392.1" r="6"/>
</g>
<line class="scan" x1="0" y1="0" x2="0" y2="1536"/>
</svg>